<svg width="512" height="512" viewBox="0 0 512 512" fill="none" xmlns="http://www.w3.org/2000/svg">
  <defs>
    <linearGradient id="bgGradient" x1="0%" y1="0%" x2="100%" y2="100%">
      <stop offset="0%" style="stop-color:#10b981"/>
      <stop offset="100%" style="stop-color:#34d399"/>
    </linearGradient>
    <filter id="shadow" x="-20%" y="-20%" width="140%" height="140%">
      <feDropShadow dx="0" dy="8" stdDeviation="16" flood-color="#10b981" flood-opacity="0.35"/>
    </filter>
  </defs>

  <!-- Background with rounded corners -->
  <rect width="512" height="512" rx="102" fill="url(#bgGradient)" filter="url(#shadow)"/>

  <!-- WhatsApp-style chat bubble (MessageCircle) -->
  <path d="M256 96C171.63 96 103 161.08 103 241.44C103 280.88 121.38 316.64 151 342.16L151 416L219.52 375.68C231.04 378.88 243.32 380.88 256 380.88C340.37 380.88 409 315.8 409 235.44C409 155.08 340.37 96 256 96Z" fill="white"/>

  <!-- Three dots inside the bubble -->
  <circle cx="192" cy="240" r="24" fill="#10b981"/>
  <circle cx="256" cy="240" r="24" fill="#10b981"/>
  <circle cx="320" cy="240" r="24" fill="#10b981"/>

  <!-- Purple AI indicator dot -->
  <circle cx="420" cy="92" r="48" fill="#a855f7"/>
  <circle cx="420" cy="92" r="40" fill="#a855f7" stroke="#10b981" stroke-width="8"/>
</svg>
